<svg width="539" height="115" viewBox="0 0 539 115" fill="none" xmlns="http://www.w3.org/2000/svg">
<circle cx="191.135" cy="57.3405" r="57.3405" fill="#E03E1A"/>
<circle cx="45.8724" cy="57.3392" r="45.8724" fill="#D9D9D9"/>
<circle cx="493.128" cy="57.3392" r="45.8724" fill="#D9D9D9"/>
<circle cx="347.866" cy="57.3405" r="57.3405" fill="#E03E1A"/>
<path d="M158.039 90.9805L222.912 26.1072" stroke="black" stroke-width="10" stroke-linecap="round"/>
<path d="M159.023 25.9941L223.897 90.8675" stroke="black" stroke-width="10" stroke-linecap="round"/>
<path d="M311.167 43.5792C310.861 61.3165 336.014 87.4128 348.629 98.2438C361.372 90.471 386.474 64.9863 386.474 43.5792C386.474 12.2307 353.216 43.5791 348.629 43.5791C345.571 43.5791 311.674 14.1444 311.167 43.5792Z" stroke="black" stroke-width="10"/>
<path d="M24.848 43.578L30.582 32.4922L32.8756 37.844M24.848 43.578L35.9338 44.7248L32.8756 37.844M24.848 43.578C26.6495 41.7917 30.5466 38.9751 32.8756 37.844M23.7012 78.0026C28.4839 81.6501 34.3702 86.3922 48.7183 86.3922C61.9642 86.3922 72.6317 76.9079 72.6317 59.3984C72.6317 37.5597 48.145 30.4279 32.8756 37.844" stroke="black" stroke-width="10" stroke-linecap="round"/>
<path d="M502.302 27.1406L479.748 54.664H510.33L479.748 89.4506" stroke="black" stroke-width="10" stroke-linecap="round"/>
</svg>
