<svg width="137" height="72" viewBox="0 0 137 72" fill="none" xmlns="http://www.w3.org/2000/svg">
<path d="M42.6045 2.5C46.7666 2.50007 50.3181 6.04951 50.3184 10.6514C50.3184 15.2535 46.7667 18.8036 42.6045 18.8037C38.4422 18.8037 34.8906 15.2535 34.8906 10.6514C34.8909 6.04947 38.4424 2.5 42.6045 2.5Z" stroke="#E03E1A" stroke-width="5"/>
<path d="M97.0791 2.5C101.241 2.50007 104.793 6.04951 104.793 10.6514C104.793 15.2535 101.241 18.8036 97.0791 18.8037C92.9168 18.8037 89.3652 15.2535 89.3652 10.6514C89.3655 6.04947 92.917 2.5 97.0791 2.5Z" stroke="#E03E1A" stroke-width="5"/>
<path d="M69.8408 2.5C74.0029 2.50007 77.5544 6.04951 77.5547 10.6514C77.5547 15.2535 74.003 18.8036 69.8408 18.8037C65.6786 18.8037 62.127 15.2535 62.127 10.6514C62.1272 6.04947 65.6787 2.5 69.8408 2.5Z" stroke="#E03E1A" stroke-width="5"/>
<path d="M69.8408 52.209C74.0029 52.2091 77.5544 55.7585 77.5547 60.3604C77.5547 64.9624 74.003 68.5126 69.8408 68.5127C65.6786 68.5127 62.127 64.9625 62.127 60.3604C62.1272 55.7584 65.6787 52.209 69.8408 52.209Z" stroke="#E03E1A" stroke-width="5"/>
<path d="M97.0791 52.209C101.241 52.2091 104.793 55.7585 104.793 60.3604C104.793 64.9624 101.241 68.5126 97.0791 68.5127C92.9168 68.5127 89.3652 64.9625 89.3652 60.3604C89.3655 55.7584 92.917 52.209 97.0791 52.209Z" stroke="#E03E1A" stroke-width="5"/>
<path d="M111.377 57.52H131.805L108.654 25.5645H30.3482L5.1543 57.52H27.6245" stroke="#E03E1A" stroke-width="5" stroke-linecap="round"/>
<path d="M42.6045 52.209C46.7666 52.2091 50.3181 55.7585 50.3184 60.3604C50.3184 64.9624 46.7667 68.5126 42.6045 68.5127C38.4422 68.5127 34.8906 64.9625 34.8906 60.3604C34.8909 55.7584 38.4424 52.209 42.6045 52.209Z" stroke="#E03E1A" stroke-width="5"/>
</svg>
