<svg width="132" height="130" viewBox="0 0 132 130" fill="none" xmlns="http://www.w3.org/2000/svg">
<path d="M2.5 22.2957L20.3885 34.8371M20.3885 34.8371L49.01 18.1152M20.3885 34.8371V67.5842M79.7782 18.1152L109.115 34.8371M109.115 34.8371L129.15 22.2957M109.115 34.8371V83.6093L64.0364 109.389M64.0364 109.389L35.4148 93.3637M64.0364 109.389V126.808" stroke="#E03E1A" stroke-width="5" stroke-linecap="round"/>
<path d="M64.7529 2.5C69.3629 2.50016 72.9853 6.12227 72.9854 10.4512C72.9854 14.7801 69.3629 18.4022 64.7529 18.4023C60.1428 18.4023 56.5195 14.7802 56.5195 10.4512C56.5195 6.12217 60.1428 2.5 64.7529 2.5Z" stroke="#E03E1A" stroke-width="5"/>
<path d="M21.8193 76.3555C26.4293 76.3556 30.0518 79.9777 30.0518 84.3066C30.0518 88.6356 26.4293 92.2576 21.8193 92.2578C17.2092 92.2578 13.5859 88.6356 13.5859 84.3066C13.5859 79.9776 17.2092 76.3555 21.8193 76.3555Z" stroke="#E03E1A" stroke-width="5"/>
</svg>
