<svg width="133" height="130" viewBox="0 0 133 130" fill="none" xmlns="http://www.w3.org/2000/svg">
<path d="M15.3073 126.806V101.027H30.9608V126.806M42.3451 126.806V101.027H57.9985V126.806M70.0943 126.806V101.027H85.7477V126.806M65.8252 34.8358L77.921 52.2544L90.0169 32.0488H114.209L129.15 58.5252L114.209 78.034V126.806M97.1321 78.034V126.806M56.5755 32.0488H2.5V126.806" stroke="#E03E1A" stroke-width="5" stroke-linecap="round"/>
<path d="M102.824 2.5C108.174 2.5 112.42 6.733 112.42 11.8447C112.42 16.9564 108.174 21.1895 102.824 21.1895C97.475 21.1894 93.2285 16.9564 93.2285 11.8447C93.2285 6.73304 97.4749 2.50006 102.824 2.5Z" stroke="#E03E1A" stroke-width="5"/>
<path d="M23.1348 77.748C26.9121 77.7482 29.8837 80.7333 29.8838 84.3057C29.8838 87.8781 26.9121 90.8631 23.1348 90.8633C19.3573 90.8633 16.3848 87.8782 16.3848 84.3057C16.3848 80.7332 19.3573 77.748 23.1348 77.748Z" stroke="#E03E1A" stroke-width="5"/>
<path d="M50.1719 77.748C53.9492 77.7482 56.9209 80.7333 56.9209 84.3057C56.9209 87.8781 53.9493 90.8631 50.1719 90.8633C46.3944 90.8633 43.4219 87.8782 43.4219 84.3057C43.4219 80.7332 46.3944 77.748 50.1719 77.748Z" stroke="#E03E1A" stroke-width="5"/>
<path d="M77.2109 77.748C80.9883 77.7482 83.9599 80.7333 83.96 84.3057C83.96 87.8781 80.9883 90.8631 77.2109 90.8633C73.4334 90.8633 70.4609 87.8782 70.4609 84.3057C70.461 80.7332 73.4335 77.748 77.2109 77.748Z" stroke="#E03E1A" stroke-width="5"/>
</svg>
