<svg width="620" height="637" viewBox="0 0 620 637" fill="none" xmlns="http://www.w3.org/2000/svg">
<ellipse cx="309.807" cy="318.5" rx="306.807" ry="315.5" fill="black" stroke="black" stroke-width="6"/>
<path d="M150.546 122.804C153.656 169.478 87.3139 152.828 71.8448 182.831C52.7193 219.925 106.311 241.638 58.9059 265.34C35.8278 276.879 40.7238 316.593 63.6582 336.662C86.5925 356.731 88.3744 383.477 69.3538 422.144C50.3332 460.811 105.523 503.011 129.141 497.347C174.767 486.406 186.927 518.608 185.492 552.416C184.058 586.224 237.413 610.35 269.474 584.203C298.533 560.504 327.758 556.026 356.699 584.203C382.476 609.298 446.061 589.31 442.462 535.294C440.366 503.829 463.406 485.964 508.401 497.188C536.056 501.14 570.634 476.185 546.582 437.754C519.048 393.761 556.257 373.069 568.823 366.475C595.866 352.284 607.429 306.558 568.823 281.406C538.925 261.928 542.37 234.883 550.401 218.369C554.002 201.273 550.927 167.766 509.812 170.505C458.418 173.93 473.468 145.756 460.789 112.089C453.19 91.909 428.774 61.0717 400.384 93.5152C377.672 119.47 349.154 86.218 336.44 66.6972C318.086 28.4134 264.84 27.7472 251.553 65.5054C242.632 90.8574 215.157 80.5727 203.095 81.3763C179.986 74.488 147.379 75.2772 150.546 122.804Z" fill="#E03E1A" stroke="black" stroke-width="20"/>
<path d="M146.952 489.109C85.5886 292.057 259.095 92.4701 481.14 229.03" stroke="black" stroke-width="20" stroke-linecap="round"/>
<path d="M475.292 163.828C515.71 318.88 396.001 559.082 137.748 427.892" stroke="black" stroke-width="20" stroke-linecap="round"/>
<path d="M157.309 298.318C161.863 320.785 236.599 392.086 311.801 359.927C394.301 324.647 384.667 239.694 369.604 193.531" stroke="black" stroke-width="20"/>
<path d="M237.723 230.479C237.723 241.419 237.723 253.943 237.824 265.09C237.876 270.773 238.338 277.9 238.745 285.178C238.834 286.768 243.443 269.077 247.446 249.339C248.937 241.984 248.807 239.933 249.01 240.409C249.213 240.885 249.62 243.924 250.743 255.214C251.867 266.505 253.696 285.955 255.146 293.847C256.597 301.739 257.613 297.484 258.542 291.848C260.601 279.372 261.123 268.783 261.326 262.652C261.477 258.105 262.354 253.428 262.456 248.725C262.514 246.032 267.644 257.369 275.538 277.307C282.466 292.272 283.9 295.95 285.129 298.912C285.748 300.253 286.357 301.266 286.986 302.924" stroke="black" stroke-width="10" stroke-linecap="round"/>
<path d="M173.543 285.798C174.561 288.258 175.788 293.19 177.625 297.628C179.46 302.062 180.284 306.584 180.799 309.371C181.435 312.812 175.812 300.879 174.969 296.012C174.41 292.788 179.057 290.959 179.572 289.21C179.78 288.505 178.671 288.073 177.849 288.067C174.419 288.041 172.322 290.118 171.301 291.555C167.359 297.102 171.286 307.826 173.736 312.05C176.205 316.306 181.296 318.741 184.571 320.508C187.572 322.128 191.919 323.475 195.409 326.683C198.491 329.515 201.132 333.376 204.502 335.852C209.391 339.442 213.399 342.035 215.037 342.045C223.229 342.091 208.112 324.958 204.735 319.504C201.729 314.647 198.703 310.953 195.737 306.828C193.128 303.197 191.956 299.21 190.619 295.085C189.342 291.145 187.663 287.059 185.816 281.697C185.032 279.421 184.381 277.362 183.973 276.327C179.779 265.681 184.166 308.444 185.905 312.668C187.419 316.346 191.11 319.161 195.198 323.892C199.214 328.541 203.168 329.47 207.772 330.91C209.962 331.596 211.768 332.56 212.792 332.363C219.441 331.079 203.647 312.251 196.768 303.231C192.933 298.202 186.276 286.713 181.934 279.528C181.357 278.574 180.511 277.578 180.094 277.665C178.756 277.942 181.701 285.743 185.982 296.636C192.782 313.937 195.207 317.715 196.845 321.015C197.66 322.659 198.887 324.112 200.519 324.937C201.277 325.32 202.15 324.946 202.668 324.433C208 319.156 202.788 303.339 201.862 298.589C200.909 293.702 200.531 280.965 202.362 272.318C203.877 265.162 203.401 253.276 201.46 249.855C200.601 248.342 197.881 250.359 195.946 251.589C190.621 254.973 189.503 260.643 187.15 267.634C182.983 280.018 182.13 286.194 181.418 290.106C180.783 293.601 180.29 298.339 180.897 301.744C181.067 302.7 182.719 301.274 183.749 299.93C185.772 297.291 187.84 289.161 189.987 277.028C192.698 261.709 191.33 258.616 191.33 257.17C191.33 256.577 193.152 271.045 196.216 291.018C197.373 298.562 198.065 300.792 198.682 301.336C199.733 302.264 201.543 292.053 203.076 276.951C203.862 269.214 203.598 261.237 203.193 257.445C202.788 253.653 201.978 254.265 201.157 255.294C199.525 257.751 198.488 260.038 198.182 263.109C198.077 265.365 198.077 269.037 198.077 272.819" stroke="black" stroke-width="10" stroke-linecap="round"/>
<path d="M318.137 217.855C318.137 219.075 317.933 221.127 315.887 229.18C311.165 247.762 306.788 261.583 306.172 265.169C304.655 273.998 303.278 284.571 302.25 293.284C300.949 304.313 301.835 312.526 301.015 314.066C300.635 314.778 299.377 314.59 298.238 313.878C295.533 312.189 288.48 305.397 277.354 296.275C262.791 284.335 257.894 278.878 253.451 271.694C251.443 268.446 251.269 261.854 253.823 251.922C259.319 230.547 269.212 231.423 272.821 228.955C276.201 226.645 280.344 224.239 284.994 221.87C290.644 218.991 293.767 217.042 297.176 214.069C301.135 210.616 303.884 207.603 306.878 204.414C308.172 203.036 295.773 202.655 275.552 203.167C265.84 203.412 261.819 206.136 256.448 209.83C251.63 213.144 248.396 216.611 245.089 218.977C241.678 221.418 236.434 224.202 232.192 227.19C228.486 229.801 225.896 232.631 222.8 235.61C219.289 238.589 215.989 243.093 213.2 247.313C212.677 248.244 212.472 249.057 211.643 251.127" stroke="black" stroke-width="20" stroke-linecap="round"/>
<path d="M229.187 256.554C231.229 261.851 231.873 265.395 230.948 266.935C225.918 275.306 214.963 288.631 212.587 292.347C212.06 293.17 211.658 293.989 211.652 293.9C211.425 290.608 216.375 282.754 218.556 271.815C219.446 267.355 221.14 264.796 220.936 263.66C220.895 263.429 220.323 264.357 219.705 264.472C219.086 264.586 218.269 263.975 217.848 262.947C215.974 258.372 219.073 254.307 221.543 250.909C224.146 247.326 225.461 243.603 228.144 239.084C231.723 233.057 233.507 227.565 235.472 223.849C237.37 220.259 241.541 218.083 245.781 215.41C248.986 213.389 254.118 211.712 258.162 210.153C258.847 209.889 259.502 210.86 259.818 212.295C260.611 215.899 259.929 219.095 259.314 220.635C257.982 223.965 255.393 227.515 252.821 230.719C250.25 233.922 248.176 237.195 248.061 242.643C247.961 247.392 252.694 249.752 255.789 251.813C259.226 254.103 267.697 254.703 275.177 258.697C279.052 260.766 278.083 266.407 278.29 270.021C278.333 270.773 277.476 271.358 276.752 271.673C273.433 273.116 268.613 269.321 265.2 268.083C263.615 267.508 262.411 265.617 261.174 262.651C257.007 252.666 263.006 242.825 265.593 235.791C267.201 231.417 271.052 228.38 273.741 224.367C276.466 220.302 277.452 216.243 278.594 211.295C279.76 206.241 285.486 226.429 286.85 235.951C288.596 248.132 288.593 266.407 289.326 271.66C289.6 273.622 289.843 279.142 289.843 285.834C289.843 287.841 289.843 287.026 289.537 285.995C287.915 280.538 286.748 274.074 285.619 267.382C284.796 262.511 283.047 259.246 281.493 255.44C278.967 249.251 277.056 245.665 275.409 242.368C274.435 240.418 272.927 239.072 272.924 238.448C272.889 231.383 279.717 254.888 283.022 261.57C285.402 266.382 287.763 273.173 288.809 279.686C289.438 283.603 292.925 286.174 295.2 288.748C297.596 291.459 298.087 296.249 301.281 302.931C303.424 307.415 303.868 311.274 304.899 314.571C306.059 318.281 309.426 325.226 312.013 331.134C313.558 334.66 313.771 338.437 313.573 342.452C313.412 345.717 307.396 345.24 303.577 345.551C301.805 345.696 299.963 346.271 298.211 346.987C294.943 348.323 293.569 352.635 290.988 355.216C288.337 357.866 284.495 358.821 279.135 359.133C275.347 359.353 270.482 360.265 266.336 360.982C256.374 362.702 239.721 360.488 236.626 358.932C233.446 357.333 230.647 355.129 227.856 352.867C224.715 350.321 221.772 347.931 219.909 344.845C217.951 341.601 218.046 337.239 217.532 331.186C216.179 315.248 215.57 311.114 215.056 306.675C214.64 303.081 214.332 299.576 214.434 297.823C214.571 295.476 218.244 302.632 221.128 307.364C223.263 310.865 225.052 313.744 227.116 316.528C229.116 319.225 228.976 323.004 231.034 326.3C233.133 329.661 235.983 331.856 238.564 334.227C241.198 336.646 244.437 337.832 247.845 338.554C251.795 339.391 255.578 340.091 258.986 341.533C261.332 342.525 262.603 345.03 263.532 346.977C264.038 348.039 263.847 349.536 262.622 350.271C256.425 353.986 251.691 349.771 248.386 347.928C244.78 345.918 241.788 342.993 239.099 338.983C236.978 335.821 235.388 331.683 231.368 321.003C229.458 315.928 227.132 312.139 225.993 308.219C224.691 303.736 222.997 297.551 223.508 290.452C223.685 287.991 225.04 288.038 225.668 288.446C228.403 290.219 230.004 294.397 232.374 298.619C234.969 303.242 238.05 306.126 240.73 309.12C243.267 311.954 244.858 315.596 246.715 318.79C248.66 322.136 252.484 323.831 255.789 326.303C258.999 328.704 262.795 330.214 266.311 332.273C269.355 334.056 272.909 334.745 276.728 336.696C280.229 338.485 283.022 341.116 284.269 344.203C284.589 344.993 284.681 345.845 284.276 346.264C283.87 346.684 282.849 346.684 281.914 346.175C277.559 343.802 273.577 337.251 269.737 333.628C267.286 331.316 263.674 326.14 259.629 321.593C257.037 318.679 254.378 314.805 251.172 311.509C247.057 307.279 244.871 302.051 242.915 297.317C241.91 294.884 241.566 291.149 241.974 287.547C242.112 286.328 243.2 286.594 243.927 287.004C247.17 288.835 249.599 292.755 253.715 297.175C260.988 304.984 265.481 306.138 269.3 309.425C272.675 312.331 275.384 315.806 278.176 318.278C281.183 320.941 284.867 323.831 289.62 327.637C291.242 328.935 293.136 328.985 294.986 329.294C296.011 329.465 297.245 329.399 297.877 328.482C301.553 323.145 295.624 316.657 294.798 312.747C293.97 308.83 292.74 304.731 292.217 296.406C291.514 285.221 292.925 272.827 293.659 269.225C294.954 262.862 294.993 255.345 297.159 251.014C299.332 246.669 300.563 241.553 301.804 237.945C303.183 233.935 304.487 230.849 305.929 227.552C307.445 224.087 310.256 220.972 311.193 212.551C311.71 207.909 315.418 205.539 317.788 203.06C322.289 198.354 334.184 201.822 337.901 201.307C341.698 200.78 345.944 199.353 353.464 200.467C361.078 201.595 355.859 211.267 356.583 214.869C357.54 219.628 357.716 222.997 359.056 226.293C360.346 229.467 360.402 235.726 361.634 242.233C362.135 244.882 363.286 246.875 363.905 255.138C365.512 276.584 363.503 291.736 362.37 293.069C360.071 295.776 359.585 299.545 357.521 302.329C355.367 305.235 354.225 309.015 352.362 312.102C350.407 315.341 348.444 318.682 346.278 321.466C344.04 324.343 342.465 327.942 340.191 330.726C338.023 333.38 337.508 336.387 335.456 337.622C334.172 338.394 331.77 338.042 330.204 337.634C325.59 336.434 325.333 330.856 324.609 327.559C323.893 324.301 322.04 321.386 320.279 318.3C318.516 315.208 317.695 311.311 317.182 307.194C316.39 300.846 316.457 295.483 315.944 289.807C315.694 287.047 315.634 284.55 315.325 275.571C315.051 267.615 315.22 252.739 315.526 244.467C315.98 232.198 317.485 227.762 318.413 224.466C318.899 222.741 320.369 221.169 322.015 219.731C323.478 218.453 326.138 218.28 328.818 218.688C332.433 219.237 332.958 224.231 333.785 228.04C334.527 231.461 335.843 234.726 337.291 238.328C339.105 242.839 338.529 246.862 339.355 251.597C339.784 254.057 339.977 256.746 340.284 259.416C340.562 261.841 341.834 275.766 341.732 295.928C341.683 305.548 340.596 309.62 338.749 313.336C338.288 314.263 337.514 314.978 336.687 315.398C335.861 315.818 334.84 315.818 334.007 315.309C330.275 313.025 329.876 307.607 328.941 303.589C328.168 300.262 326.992 296.496 325.745 292.477C324.062 287.054 324.918 279.204 324.609 269.812C324.346 261.849 324.504 247.381 324.606 239.522C324.719 230.844 325.123 228.991 325.531 227.04C326.418 222.805 331.089 220.762 333.881 217.981C336.267 215.603 338.529 214.379 339.556 213.042C340.049 212.401 340.992 212.317 341.515 212.619C344.73 214.479 343.27 221.145 343.997 225.364C344.586 228.779 346.984 231.639 349.15 235.038C351.407 238.578 352.554 242.134 353.281 245.328C353.641 246.909 354.832 249.943 355.036 254.363C355.159 257.018 356.07 268.79 355.763 285.967C354.844 293.162 353.6 295.026 352.365 296.567C351.743 297.292 351.13 297.903 348.642 298.533" stroke="black" stroke-width="20" stroke-linecap="round"/>
<path d="M286.922 281.043C282.394 282.925 271.001 290.509 262.536 296.978C259.279 299.467 254.704 303.955 252.468 305.62C250.233 307.285 250.609 306.156 250.991 305.198C253.173 299.729 261.421 291.159 271.126 281.436C266.485 287.772 261.267 294.717 260.318 296.804C259.933 297.762 259.744 298.515 259.551 299.291" stroke="black" stroke-width="2" stroke-linecap="round"/>
<path d="M275.518 222.878C276.277 231.991 276.659 242.187 275.997 250.042C275.616 254.574 272.12 264.62 268.402 275.024C266.198 281.191 266.588 284.829 266.112 301.979C266.013 305.567 265.265 306.122 264.316 306.413C262.131 307.082 259.939 306.328 258.234 305.193C253.42 301.988 250.827 293.828 249.478 284.604C248.1 275.177 250.422 267.186 253.159 261.512C261.379 244.472 267.695 242.666 271.233 241.309C279.578 238.108 269.451 257.059 259.785 271.101C254.972 278.093 246.299 284.425 236.622 291.353C229.154 296.7 224.584 298.338 222.973 298.529C222.121 298.631 221.174 298.344 220.407 297.777C218.79 296.58 218.306 294.358 218.021 292.556C217.437 288.866 221.14 285.046 224.847 281.816C231.166 276.308 244.292 268.338 250.696 263.286C253.679 260.932 256.689 259.955 258.696 258.801C267.02 254.012 241.532 271.896 234.487 276.843C228.388 281.125 224.778 283.318 223.256 283.233C214.681 282.751 233.286 263.217 239.376 254.279C243.752 247.857 252.657 241.354 260.826 235.275C263.922 232.971 264.855 232.208 257.436 237.089C250.017 241.97 234.21 252.508 226.349 257.466C218.488 262.425 219.053 261.484 219.908 260.623C223.728 256.777 235.51 249.36 243.474 244.65C245.34 243.546 247.941 242.466 250.128 240.476C253.633 237.287 253.267 232.014 256.592 229.257C257.432 228.56 258.206 228.022 257.841 227.825C253.17 225.307 246.082 229.516 242.55 231.615C238.548 233.992 235.807 239.78 234.276 243.487C232.581 247.589 231.051 250.991 228.861 255.271C226.857 259.188 225.725 263.16 224.202 267.34C222.512 271.981 220.604 280.416 219.541 293.734C219.077 299.543 216.225 304.4 213.753 307.171C213.154 307.843 212.05 308.027 211.189 307.938C209.458 307.761 208.236 305.951 207.192 304.152C205.931 301.978 205.949 291.399 206.043 277.336C206.092 269.977 208.036 266.616 209.838 260.443C211.352 255.255 216.008 249.896 217.733 247.213C219.283 244.802 211.857 248.345 208.811 249.58C205.442 250.946 201.98 257.253 200.155 261.073C198.741 264.034 197.019 266.582 195.217 270.573C193.758 273.805 191.134 276.652 189.324 279.797C187.755 282.521 185.249 285.776 183.524 289.015C181.837 292.184 179.729 295.094 178.768 298.233C177.724 301.643 180.471 305.164 182.466 309.823C183.934 313.249 186.743 315.622 190.914 320.182C194.374 323.963 197.19 325.704 200.235 327.794C204.316 330.595 210.488 333.117 214.297 334.734C219.534 336.957 223.797 338.626 227.225 340.342C231.365 342.416 236.525 343.758 240.625 344.907C244.186 345.905 247.941 347.567 251.933 348.329C259.388 349.75 271.321 348.149 275.028 347.667C279.217 347.123 282.156 345.48 285.674 344.913C288.866 344.398 291.85 343.393 294.895 342.632C297.901 341.88 301.727 340.93 305.633 339.307C308.641 338.058 311.056 337.879 312.102 337.97C312.506 338.005 312.208 339.002 311.64 339.578C308.939 342.32 305.376 343.576 302.237 344.904C300.439 345.665 298.716 346.239 298.14 346.524C293.379 348.881 311.044 344.91 314.377 344.343C318.11 343.707 321.503 342.447 324.642 341.115C328.815 339.345 331.197 336.368 334.242 334.557C337.788 332.449 341.267 328.202 344.506 324.869C347.666 321.617 349.638 318.314 351.449 315.269C353.524 311.779 356.287 308.05 358.671 305.005C360.797 302.289 362.184 298.926 362.953 295.407C363.668 292.142 365.229 289.232 366.278 286.187C367.349 283.079 368.274 279.731 368.562 268.352C368.649 264.895 369.226 262.995 369.511 252.443C369.771 242.834 369.608 224.578 369.42 214.798C369.217 204.253 368.091 202.738 367.239 201.315C365.354 198.169 358.99 198.358 348.196 197.411C322.763 195.181 319.632 198.541 316.587 199.022C313.359 199.533 308.809 201.004 304.521 202.347C300.51 203.603 296.264 205.566 291.311 208.517C287.989 210.497 280.708 217.689 275.815 223.055C271.777 227.484 267.17 229.71 264.598 231.994C263.238 233.202 261.274 234.842 260.504 236.082C257.661 240.663 268.47 231.637 269.813 228.592C271.664 224.396 270.762 218.704 271.991 217.187C275.105 213.344 283.068 214.325 291.457 215.554C298.581 216.597 302.114 219.263 304.404 221.441C307.821 224.692 304.794 230.657 302.519 234.175C301.957 235.045 301.567 235.789 301.749 235.612C302.903 234.494 303.836 232.39 304.03 230.967C304.239 229.433 298.932 229.151 294.083 228.869C292.595 228.782 293.184 228.022 294.04 227.449C298.417 224.516 303.631 222.32 306.87 221.171C309.934 220.084 312.949 218.51 316.655 217.088C321.62 215.182 326.441 213.002 330.247 211.479C333.892 210.021 337.275 208.44 340.608 206.538C342.249 205.602 344.13 205.395 345.835 205.107C351.615 204.131 353.824 215.636 355.346 219.346C357.592 224.817 357.245 229.322 358.106 234.631C359.343 242.259 358.015 248.34 357.071 251.741C355.27 258.235 351.383 267.682 347.585 276.515C344.44 283.83 341.86 288.057 340.058 290.917C337.948 294.266 336.546 298.698 335.208 302.319C333.702 306.399 332.736 309.35 332.069 312.395C331.415 315.382 331.402 319.226 332.155 321.613C334.941 330.448 339.762 304.252 340.05 300.919C340.206 299.104 340.526 288.553 340.62 273.636C340.695 261.697 341.472 249.885 341.76 246.367C342.026 243.122 343.942 241.132 343.48 240.841C337.013 236.77 332.942 245.106 330.079 246.535C324.897 249.12 331.208 258.393 331.875 263.816C332.957 272.606 329.144 278.716 325.426 284.259C323.124 287.691 320.396 292.049 317.725 295.288C315.321 298.202 312.595 300.796 310.217 303.274C307.635 305.964 304.612 307.833 302.234 310.59C299.507 313.752 296.058 316.763 293.775 319.241C291.494 321.715 288.269 323.423 285.13 325.607C283.248 326.916 281.608 328.179 280.468 328.373C279.47 328.543 281.209 325.157 282.452 322.112C283.723 318.999 285.395 315.657 287.012 312.512C287.387 311.781 288.052 311.277 287.026 311.363C279.058 312.027 275.153 315.816 272.582 318.762C271.074 320.488 270.01 322.283 269.063 323.423C268.623 323.954 267.74 323.811 267.352 323.341C265.355 320.918 269.417 315.292 272.656 311.089C275.562 307.318 277.035 305.193 277.229 303.485C277.954 297.101 259.757 309.544 257.279 311.922C254.669 314.426 253.667 317.903 251.671 322.177C249.627 326.554 248.152 328.367 246.921 329.223C246.323 329.638 245.501 329.514 244.831 329.137C241.699 327.378 241.498 322.5 240.263 319.261C239.136 316.304 238.647 313.935 238.641 312.135C239.011 311.089 240.141 309.772 242.322 307.776C244.503 305.78 247.702 303.146 250.998 300.431" stroke="black" stroke-width="26" stroke-linecap="round"/>
<circle cx="307.633" cy="263.442" r="67.012" fill="#FFF1D7"/>
</svg>
