<svg width="1457" height="986" viewBox="0 0 1457 986" fill="none" xmlns="http://www.w3.org/2000/svg">
<ellipse cx="729.451" cy="393" rx="300.5" ry="358.5" fill="black"/>
<path d="M605.715 18.2131C673.731 -19.0769 710.925 11.6965 727.226 27.234C792.685 -31.7826 833.243 29.9983 845.729 38.1353C863.034 49.4135 877.705 48.6617 891.249 48.6617C933.759 48.6617 966.563 99.4082 968.369 121.963C970.175 144.517 988.307 155.794 995.831 164.816C1018.4 175.091 1042.48 200.528 1037.97 226.842C1033.08 255.303 1042.01 264.406 1043.49 265.882C1056.28 275.657 1059.74 299.101 1057.15 308.789C1054.34 319.323 1039.09 342.495 1025.17 344.5L1013.51 342.246L995.831 244.884L907.049 121.963C882.094 110.435 830.681 87.3792 824.662 87.3792C818.643 87.3792 757.197 64.3235 727.226 52.7957L584.648 96.0251L512.042 151.283L457.679 249.642L429.278 344.5C429.278 336.23 425.892 317.51 412.35 308.789C395.421 297.887 407.459 271.95 399.935 224.961C393.916 187.371 416.989 169.202 429.278 164.816C447.837 163.563 466.96 155.549 475.174 125.346C484.579 90.7633 514.299 94.1453 542.89 87.3792C565.838 74.9752 537.698 55.5032 605.715 18.2131Z" fill="black" stroke="black"/>
<path d="M408.644 308.966C431.178 302.164 437.813 320.673 438.313 330.778L446.951 494.181C439.941 495.413 422.465 493.737 408.644 477.175C394.823 460.613 387.362 407.427 385.359 382.904C383.732 361.093 386.11 315.769 408.644 308.966Z" fill="black" stroke="black"/>
<path d="M1052.97 330.966C1028.25 324.164 1020.97 342.673 1020.42 352.778L1010.95 516.181C1018.64 517.413 1037.81 515.737 1052.97 499.175C1068.12 482.613 1076.31 429.427 1078.5 404.904C1080.29 383.093 1077.68 337.769 1052.97 330.966Z" fill="black" stroke="black"/>
<ellipse cx="728.451" cy="313" rx="229.5" ry="259.5" transform="rotate(-90 728.451 313)" fill="#FFF1D7"/>
<ellipse cx="581.675" cy="571.68" rx="54.5586" ry="24.3302" transform="rotate(6.17188 581.675 571.68)" fill="#D9D9D9"/>
<ellipse cx="878.06" cy="576.103" rx="54.5586" ry="24.3302" transform="rotate(-9.23029 878.06 576.103)" fill="#D9D9D9"/>
<path d="M608.315 786.97C623.978 768.052 626.388 735.817 608.315 720.768L859.451 713C872.253 708.191 835.352 722.395 837.234 756.056C837.714 764.633 849.282 774.33 868.861 781.475C888.44 788.619 1146.59 839.604 1237.45 853H167L513.811 807.923C554.6 805.862 592.652 805.888 608.315 786.97Z" fill="black" stroke="black"/>
<ellipse cx="898.951" cy="570" rx="17" ry="16.5" fill="black"/>
<ellipse cx="603.951" cy="572.5" rx="16" ry="17" fill="black"/>
<path d="M449.157 791.207C464.314 775.039 526.804 755.678 585.38 778.4L863.54 781.795C880.025 774.854 943.057 763.651 993.115 785.995C1052.13 812.336 1029.87 849.268 1004.64 858.062L707.871 915.727C644.239 889.37 470.386 862.186 447.575 840.014C435.215 828 430.209 811.418 449.157 791.207Z" fill="black" stroke="black"/>
<g filter="url(#filter0_d_241_582)">
<ellipse cx="945.498" cy="131.43" rx="27.8364" ry="13.2274" transform="rotate(37.184 945.498 131.43)" fill="#D9D9D9"/>
<path d="M954.052 149.104C950.492 141.748 956.78 133.459 964.823 134.905L1003.97 141.945C1011.32 143.267 1014.68 151.883 1010.17 157.831L988.349 186.594C983.836 192.542 974.633 191.627 971.381 184.906L954.052 149.104Z" fill="#D9D9D9"/>
<path d="M936.945 113.756C940.505 121.112 934.217 129.401 926.173 127.955L887.026 120.915C879.678 119.593 876.317 110.977 880.829 105.029L902.648 76.2668C907.161 70.3185 916.364 71.2336 919.616 77.9541L936.945 113.756Z" fill="#D9D9D9"/>
<path d="M923.64 140.55C927.825 138.097 941.6 143.055 953.304 143.224C957.745 143.288 955.428 139.133 951.021 138.582C948.365 138.25 945.363 137.577 941.94 136.479C936.332 134.681 923.042 131.2 914.748 131.661C911.388 131.848 907.65 133.365 904.109 135.384C897.874 138.94 899.78 147.524 906.618 149.706L906.994 149.826C913.466 151.89 917.78 143.985 923.64 140.55Z" fill="#D9D9D9" stroke="#D9D9D9" stroke-width="10"/>
<path d="M949.099 165.242C950.702 159.527 940.858 145.288 937.185 131.772C935.814 126.725 941.375 128.124 943.324 132.977C944.494 135.891 946.145 139.076 948.387 142.586C952.139 148.461 960.126 162.655 962.055 172.436C962.977 177.114 961.905 183.053 960.137 188.679C957.876 195.877 948.663 196.261 944.612 189.897L942.096 185.946C938.262 179.923 942.743 172.669 947.7 167.529C948.377 166.827 948.868 166.065 949.099 165.242Z" fill="#D9D9D9" stroke="#D9D9D9" stroke-width="10"/>
</g>
<g filter="url(#filter1_d_241_582)">
<ellipse cx="506.662" cy="117.08" rx="27.8364" ry="13.2274" transform="rotate(-36.2894 506.662 117.08)" fill="#D9D9D9"/>
<path d="M526.038 113.906C517.973 115.227 511.815 106.84 515.49 99.5407L533.375 64.0134C536.732 57.3445 545.949 56.5732 550.368 62.5913L571.735 91.6906C576.154 97.7086 572.659 106.271 565.291 107.478L526.038 113.906Z" fill="#D9D9D9"/>
<path d="M487.284 120.251C495.349 118.931 501.507 127.317 497.832 134.617L479.947 170.144C476.59 176.813 467.374 177.584 462.955 171.566L441.587 142.467C437.168 136.449 440.664 127.886 448.032 126.679L487.284 120.251Z" fill="#D9D9D9"/>
<path d="M509.186 140.629C508.025 135.919 516.696 124.123 520.188 112.951C521.513 108.711 516.87 109.751 515.088 113.819C514.014 116.271 512.515 118.957 510.489 121.926C507.17 126.791 500.053 138.542 498.135 146.625C497.359 149.899 497.749 153.914 498.678 157.883C500.313 164.873 509.085 165.487 513.122 159.552L513.344 159.225C517.164 153.608 510.812 147.224 509.186 140.629Z" fill="#D9D9D9" stroke="#D9D9D9" stroke-width="10"/>
<path d="M540.099 123.245C535.077 120.082 518.626 125.469 504.624 125.145C499.395 125.024 502.318 120.09 507.525 119.603C510.652 119.31 514.175 118.634 518.178 117.482C524.877 115.556 540.756 111.937 550.682 112.871C555.429 113.317 560.817 116.034 565.709 119.329C571.966 123.544 569.714 132.486 562.46 134.56L557.957 135.847C551.092 137.81 545.412 131.45 541.894 125.236C541.414 124.388 540.823 123.7 540.099 123.245Z" fill="#D9D9D9" stroke="#D9D9D9" stroke-width="10"/>
</g>
<path d="M42.9513 906C86.1513 861.2 176.951 848.333 227.451 847.5L557.451 830.5L1170.45 843.5C1236.95 851.5 1255.95 847 1329.95 871C1403.95 895 1453.78 955 1455.95 985.5H2.45131C-2.71535 977.667 -0.248688 950.8 42.9513 906Z" fill="black" stroke="black"/>
<defs>
<filter id="filter0_d_241_582" x="878.787" y="72.3096" width="133.423" height="137.081" filterUnits="userSpaceOnUse" color-interpolation-filters="sRGB">
<feFlood flood-opacity="0" result="BackgroundImageFix"/>
<feColorMatrix in="SourceAlpha" type="matrix" values="0 0 0 0 0 0 0 0 0 0 0 0 0 0 0 0 0 0 127 0" result="hardAlpha"/>
<feOffset dy="10"/>
<feComposite in2="hardAlpha" operator="out"/>
<feColorMatrix type="matrix" values="0 0 0 0 0 0 0 0 0 0 0 0 0 0 0 0 0 0 0.8 0"/>
<feBlend mode="normal" in2="BackgroundImageFix" result="effect1_dropShadow_241_582"/>
<feBlend mode="normal" in="SourceGraphic" in2="effect1_dropShadow_241_582" result="shape"/>
</filter>
<filter id="filter1_d_241_582" x="439.638" y="58.5088" width="134.717" height="127.14" filterUnits="userSpaceOnUse" color-interpolation-filters="sRGB">
<feFlood flood-opacity="0" result="BackgroundImageFix"/>
<feColorMatrix in="SourceAlpha" type="matrix" values="0 0 0 0 0 0 0 0 0 0 0 0 0 0 0 0 0 0 127 0" result="hardAlpha"/>
<feOffset dy="10"/>
<feComposite in2="hardAlpha" operator="out"/>
<feColorMatrix type="matrix" values="0 0 0 0 0 0 0 0 0 0 0 0 0 0 0 0 0 0 0.8 0"/>
<feBlend mode="normal" in2="BackgroundImageFix" result="effect1_dropShadow_241_582"/>
<feBlend mode="normal" in="SourceGraphic" in2="effect1_dropShadow_241_582" result="shape"/>
</filter>
</defs>
</svg>
