<svg width="1440" height="986" viewBox="0 0 1440 986" fill="none" xmlns="http://www.w3.org/2000/svg">
<ellipse cx="713.5" cy="393" rx="300.5" ry="358.5" fill="black"/>
<path d="M589.764 18.2131C657.78 -19.0769 694.973 11.6965 711.275 27.234C776.734 -31.7826 817.292 29.9983 829.778 38.1353C847.083 49.4135 861.754 48.6617 875.297 48.6617C917.808 48.6617 950.612 99.4082 952.418 121.963C954.224 144.517 972.356 155.794 979.88 164.816C1002.45 175.091 1026.53 200.528 1022.01 226.842C1017.13 255.303 1026.06 264.406 1027.53 265.882C1040.32 275.657 1043.79 299.101 1041.2 308.789C1038.39 319.323 1023.14 342.495 1009.22 344.5L997.562 342.246L979.88 244.884L891.098 121.963C866.143 110.435 814.73 87.3792 808.711 87.3792C802.691 87.3792 741.246 64.3235 711.275 52.7957L568.697 96.0251L496.091 151.283L441.728 249.642L413.327 344.5C413.327 336.23 409.941 317.51 396.398 308.789C379.47 297.887 391.508 271.95 383.984 224.961C377.964 187.371 401.038 169.202 413.327 164.816C431.886 163.563 451.009 155.549 459.223 125.346C468.628 90.7633 498.348 94.1453 526.939 87.3792C549.887 74.9752 521.747 55.5032 589.764 18.2131Z" fill="black" stroke="black"/>
<path d="M392.693 308.966C415.226 302.164 421.861 320.673 422.362 330.778L431 494.181C423.99 495.413 406.513 493.737 392.693 477.175C378.872 460.613 371.411 407.427 369.408 382.904C367.78 361.093 370.159 315.769 392.693 308.966Z" fill="black" stroke="black"/>
<path d="M1037.01 330.966C1012.3 324.164 1005.02 342.673 1004.47 352.778L995 516.181C1002.69 517.413 1021.86 515.737 1037.01 499.175C1052.17 482.613 1060.36 429.427 1062.55 404.904C1064.34 383.093 1061.73 337.769 1037.01 330.966Z" fill="black" stroke="black"/>
<ellipse cx="712.5" cy="313" rx="229.5" ry="259.5" transform="rotate(-90 712.5 313)" fill="#FFF1D7"/>
<ellipse cx="565.724" cy="571.68" rx="54.5586" ry="24.3302" transform="rotate(6.17188 565.724 571.68)" fill="#D9D9D9"/>
<ellipse cx="862.11" cy="576.104" rx="54.5586" ry="24.3302" transform="rotate(-9.23029 862.11 576.104)" fill="#D9D9D9"/>
<path d="M707.785 624.395C685.316 626.716 645.194 650.131 628 663.727C641.359 657.9 678.692 646.829 721.145 649.16C774.211 652.073 810.208 686.308 792.395 658.993C774.582 631.679 750.09 620.025 707.785 624.395Z" fill="#D9D9D9" stroke="black"/>
<path d="M592.364 786.971C608.027 768.053 610.437 735.818 592.364 720.769L843.5 713.001C856.301 708.192 819.4 722.396 821.283 756.057C821.763 764.634 833.331 774.331 852.91 781.476C872.488 788.62 1130.64 839.605 1221.5 853.001H116L497.86 807.924C538.648 805.863 576.701 805.889 592.364 786.971Z" fill="black" stroke="black"/>
<ellipse cx="883" cy="570" rx="17" ry="16.5" fill="black"/>
<ellipse cx="588" cy="572.5" rx="16" ry="17" fill="black"/>
<path d="M433.205 791.207C448.363 775.039 510.853 755.678 569.429 778.4L847.588 781.795C864.073 774.854 927.106 763.651 977.164 785.995C1036.18 812.336 1013.92 849.268 988.687 858.062L691.92 915.727C628.287 889.37 454.435 862.186 431.624 840.014C419.264 828 414.258 811.418 433.205 791.207Z" fill="black" stroke="black"/>
<g filter="url(#filter0_d_200_2790)">
<ellipse cx="929.546" cy="131.43" rx="27.8364" ry="13.2274" transform="rotate(37.184 929.546 131.43)" fill="#D9D9D9"/>
<path d="M938.1 149.104C934.539 141.748 940.827 133.459 948.871 134.905L988.018 141.945C995.366 143.267 998.727 151.883 994.215 157.831L972.396 186.594C967.884 192.542 958.681 191.627 955.428 184.906L938.1 149.104Z" fill="#D9D9D9"/>
<path d="M920.993 113.757C924.553 121.113 918.265 129.402 910.222 127.956L871.075 120.916C863.726 119.594 860.365 110.978 864.878 105.03L886.697 76.2678C891.209 70.3195 900.412 71.2346 903.665 77.955L920.993 113.757Z" fill="#D9D9D9"/>
<path d="M907.688 140.55C911.873 138.097 925.649 143.055 937.352 143.224C941.793 143.288 939.476 139.133 935.069 138.582C932.413 138.25 929.411 137.577 925.988 136.479C920.38 134.681 907.09 131.2 898.796 131.661C895.436 131.848 891.699 133.365 888.157 135.384C881.922 138.94 883.828 147.524 890.666 149.706L891.042 149.826C897.514 151.89 901.828 143.985 907.688 140.55Z" fill="#D9D9D9" stroke="#D9D9D9" stroke-width="10"/>
<path d="M933.147 165.243C934.751 159.528 924.906 145.289 921.234 131.773C919.862 126.726 925.424 128.125 927.373 132.978C928.543 135.892 930.193 139.077 932.436 142.587C936.188 148.462 944.175 162.656 946.103 172.437C947.026 177.115 945.954 183.054 944.186 188.68C941.925 195.878 932.712 196.262 928.66 189.898L926.145 185.947C922.31 179.924 926.792 172.67 931.749 167.53C932.425 166.828 932.916 166.066 933.147 165.243Z" fill="#D9D9D9" stroke="#D9D9D9" stroke-width="10"/>
</g>
<g filter="url(#filter1_d_200_2790)">
<ellipse cx="490.709" cy="117.081" rx="27.8364" ry="13.2274" transform="rotate(-36.2894 490.709 117.081)" fill="#D9D9D9"/>
<path d="M510.088 113.906C502.023 115.227 495.865 106.84 499.54 99.5407L517.425 64.0133C520.782 57.3445 529.998 56.5732 534.417 62.5913L555.785 91.6906C560.204 97.7086 556.708 106.271 549.34 107.478L510.088 113.906Z" fill="#D9D9D9"/>
<path d="M471.332 120.252C479.397 118.932 485.555 127.318 481.88 134.618L463.995 170.145C460.638 176.814 451.422 177.585 447.003 171.567L425.635 142.468C421.216 136.45 424.712 127.887 432.08 126.68L471.332 120.252Z" fill="#D9D9D9"/>
<path d="M493.234 140.629C492.073 135.919 500.744 124.123 504.236 112.951C505.561 108.711 500.918 109.751 499.136 113.819C498.062 116.271 496.563 118.957 494.537 121.926C491.218 126.791 484.101 138.542 482.183 146.625C481.406 149.899 481.797 153.914 482.726 157.883C484.361 164.873 493.133 165.487 497.17 159.552L497.392 159.225C501.212 153.608 494.86 147.224 493.234 140.629Z" fill="#D9D9D9" stroke="#D9D9D9" stroke-width="10"/>
<path d="M524.147 123.246C519.125 120.083 502.674 125.47 488.672 125.146C483.443 125.025 486.366 120.091 491.573 119.604C494.7 119.311 498.223 118.635 502.226 117.483C508.925 115.557 524.804 111.938 534.73 112.871C539.477 113.318 544.865 116.035 549.757 119.33C556.014 123.545 553.762 132.487 546.508 134.561L542.005 135.848C535.14 137.811 529.46 131.451 525.942 125.237C525.462 124.389 524.871 123.701 524.147 123.246Z" fill="#D9D9D9" stroke="#D9D9D9" stroke-width="10"/>
</g>
<path d="M27.0001 906C70.2001 861.2 161 848.333 211.5 847.5L541.5 830.5L1154.5 843.5C1221 851.5 1240 847 1314 871C1388 895 1437.83 955 1440 985.5H-13.4999C-18.6665 977.667 -16.1999 950.8 27.0001 906Z" fill="black" stroke="black"/>
<defs>
<filter id="filter0_d_200_2790" x="862.836" y="72.3105" width="133.422" height="137.082" filterUnits="userSpaceOnUse" color-interpolation-filters="sRGB">
<feFlood flood-opacity="0" result="BackgroundImageFix"/>
<feColorMatrix in="SourceAlpha" type="matrix" values="0 0 0 0 0 0 0 0 0 0 0 0 0 0 0 0 0 0 127 0" result="hardAlpha"/>
<feOffset dy="10"/>
<feComposite in2="hardAlpha" operator="out"/>
<feColorMatrix type="matrix" values="0 0 0 0 0 0 0 0 0 0 0 0 0 0 0 0 0 0 0.8 0"/>
<feBlend mode="normal" in2="BackgroundImageFix" result="effect1_dropShadow_200_2790"/>
<feBlend mode="normal" in="SourceGraphic" in2="effect1_dropShadow_200_2790" result="shape"/>
</filter>
<filter id="filter1_d_200_2790" x="423.686" y="58.5098" width="134.717" height="127.139" filterUnits="userSpaceOnUse" color-interpolation-filters="sRGB">
<feFlood flood-opacity="0" result="BackgroundImageFix"/>
<feColorMatrix in="SourceAlpha" type="matrix" values="0 0 0 0 0 0 0 0 0 0 0 0 0 0 0 0 0 0 127 0" result="hardAlpha"/>
<feOffset dy="10"/>
<feComposite in2="hardAlpha" operator="out"/>
<feColorMatrix type="matrix" values="0 0 0 0 0 0 0 0 0 0 0 0 0 0 0 0 0 0 0.8 0"/>
<feBlend mode="normal" in2="BackgroundImageFix" result="effect1_dropShadow_200_2790"/>
<feBlend mode="normal" in="SourceGraphic" in2="effect1_dropShadow_200_2790" result="shape"/>
</filter>
</defs>
</svg>
